<svg width="380" height="173" viewBox="0 0 380 173" fill="none" xmlns="http://www.w3.org/2000/svg">
<g filter="url(#filter0_d_1_3)">
<path d="M23.336 85.168H34.316C35.9 85.168 37.148 84.808 38.06 84.088C38.996 83.368 39.464 82.384 39.464 81.136C39.464 79.864 38.996 78.88 38.06 78.184C37.148 77.464 35.9 77.104 34.316 77.104H22.652L24.776 74.44V100H20.024V73H34.748C36.644 73 38.3 73.348 39.716 74.044C41.156 74.716 42.272 75.664 43.064 76.888C43.88 78.088 44.288 79.504 44.288 81.136C44.288 82.72 43.88 84.124 43.064 85.348C42.272 86.548 41.156 87.496 39.716 88.192C38.3 88.864 36.644 89.2 34.748 89.2H23.336V85.168ZM28.664 87.364H34.244L44.972 100H39.284L28.664 87.364ZM56.9144 100.504C55.0424 100.504 53.4464 100.12 52.1264 99.352C50.8304 98.584 49.8344 97.48 49.1384 96.04C48.4424 94.6 48.0944 92.884 48.0944 90.892V79.624H52.7744V90.172C52.7744 92.284 53.2544 93.892 54.2144 94.996C55.1984 96.076 56.6024 96.616 58.4264 96.616C59.7464 96.616 60.8744 96.328 61.8104 95.752C62.7704 95.176 63.5144 94.36 64.0424 93.304C64.5704 92.224 64.8344 90.976 64.8344 89.56L66.4544 90.46C66.2624 92.548 65.7344 94.348 64.8704 95.86C64.0064 97.348 62.8904 98.5 61.5224 99.316C60.1544 100.108 58.6184 100.504 56.9144 100.504ZM66.0224 100L64.8344 92.656V79.624H69.5144V93.376L70.7024 100H66.0224ZM74.7496 79.624H79.4296V86.716L79.2136 87.436V91.54L79.4296 92.8V105.94H74.7496V79.624ZM77.6296 89.812C78.0856 87.652 78.8416 85.78 79.8976 84.196C80.9536 82.588 82.2496 81.34 83.7856 80.452C85.3456 79.564 87.0736 79.12 88.9696 79.12C90.9616 79.12 92.7256 79.576 94.2616 80.488C95.7976 81.376 96.9976 82.624 97.8616 84.232C98.7256 85.816 99.1576 87.676 99.1576 89.812C99.1576 91.924 98.7256 93.784 97.8616 95.392C96.9976 97 95.7976 98.26 94.2616 99.172C92.7256 100.06 90.9616 100.504 88.9696 100.504C87.0736 100.504 85.3576 100.06 83.8216 99.172C82.2856 98.284 80.9776 97.036 79.8976 95.428C78.8416 93.82 78.0856 91.948 77.6296 89.812ZM94.4056 89.812C94.4056 88.444 94.1176 87.244 93.5416 86.212C92.9896 85.156 92.2216 84.34 91.2376 83.764C90.2536 83.164 89.1256 82.864 87.8536 82.864C86.5816 82.864 85.3816 83.164 84.2536 83.764C83.1496 84.34 82.1776 85.156 81.3376 86.212C80.4976 87.244 79.8136 88.444 79.2856 89.812C79.8136 91.18 80.4976 92.392 81.3376 93.448C82.1776 94.48 83.1496 95.296 84.2536 95.896C85.3816 96.472 86.5816 96.76 87.8536 96.76C89.1256 96.76 90.2536 96.472 91.2376 95.896C92.2216 95.296 92.9896 94.48 93.5416 93.448C94.1176 92.392 94.4056 91.18 94.4056 89.812ZM122.058 100L121.266 92.44L122.202 89.812L121.266 87.22L122.058 79.624H126.882L125.802 89.812L126.882 100H122.058ZM123.498 89.812C123.042 91.948 122.286 93.82 121.23 95.428C120.174 97.036 118.866 98.284 117.306 99.172C115.77 100.06 114.054 100.504 112.158 100.504C110.166 100.504 108.402 100.06 106.866 99.172C105.33 98.26 104.13 97 103.266 95.392C102.402 93.784 101.97 91.924 101.97 89.812C101.97 87.676 102.402 85.816 103.266 84.232C104.13 82.624 105.33 81.376 106.866 80.488C108.402 79.576 110.166 79.12 112.158 79.12C114.054 79.12 115.77 79.564 117.306 80.452C118.866 81.34 120.174 82.588 121.23 84.196C122.31 85.78 123.066 87.652 123.498 89.812ZM106.722 89.812C106.722 91.18 106.998 92.392 107.55 93.448C108.126 94.48 108.906 95.296 109.89 95.896C110.874 96.472 112.002 96.76 113.274 96.76C114.57 96.76 115.77 96.472 116.874 95.896C117.978 95.296 118.95 94.48 119.79 93.448C120.654 92.392 121.338 91.18 121.842 89.812C121.338 88.444 120.654 87.244 119.79 86.212C118.95 85.156 117.978 84.34 116.874 83.764C115.77 83.164 114.57 82.864 113.274 82.864C112.002 82.864 110.874 83.164 109.89 83.764C108.906 84.34 108.126 85.156 107.55 86.212C106.998 87.244 106.722 88.444 106.722 89.812ZM251.11 35.872C253.798 31.264 256.422 27.616 258.982 24.928C261.606 22.176 263.718 20.8 265.318 20.8C266.726 20.8 267.43 21.536 267.43 23.008C267.43 25.696 266.342 28.64 264.166 31.84C261.99 34.976 259.014 38.144 255.238 41.344C251.462 44.48 247.174 47.52 242.374 50.464C237.638 53.344 232.646 55.936 227.398 58.24C222.15 60.544 216.934 62.368 211.75 63.712C206.566 64.992 201.734 65.632 197.254 65.632C190.342 65.632 184.358 64.8 179.302 63.136C174.31 61.472 170.438 59.104 167.686 56.032C164.998 52.896 163.654 49.184 163.654 44.896C163.654 41.696 164.55 38.688 166.342 35.872C168.134 33.056 170.598 30.592 173.734 28.48C176.934 26.304 180.614 24.608 184.774 23.392C188.934 22.176 193.382 21.568 198.118 21.568C203.686 21.568 209.286 22.24 214.918 23.584C220.614 24.864 226.054 26.688 231.238 29.056C236.486 31.424 241.254 34.176 245.542 37.312C249.894 40.384 253.51 43.712 256.39 47.296C259.27 50.88 261.19 54.56 262.15 58.336L261.766 58.432C260.742 54.72 258.79 51.104 255.91 47.584C253.03 44 249.446 40.672 245.158 37.6C240.934 34.528 236.23 31.84 231.046 29.536C225.862 27.232 220.454 25.44 214.822 24.16C209.254 22.816 203.686 22.144 198.118 22.144C193.382 22.144 188.934 22.72 184.774 23.872C180.678 25.024 177.094 26.624 174.022 28.672C170.95 30.72 168.55 33.12 166.822 35.872C165.094 38.624 164.23 41.6 164.23 44.8C164.23 51.2 167.11 56.192 172.87 59.776C178.694 63.296 186.822 65.056 197.254 65.056C201.606 65.056 206.342 64.416 211.462 63.136C216.582 61.792 221.734 60 226.918 57.76C232.102 55.456 237.062 52.896 241.798 50.08C246.598 47.2 250.886 44.192 254.662 41.056C258.438 37.92 261.414 34.816 263.59 31.744C265.766 28.672 266.854 25.824 266.854 23.2C266.854 22.048 266.406 21.472 265.51 21.472C264.038 21.472 262.15 22.72 259.846 25.216C257.542 27.712 254.982 31.264 252.166 35.872C249.926 39.52 247.814 43.648 245.83 48.256C243.91 52.8 241.926 57.536 239.878 62.464C237.83 67.392 235.59 72.288 233.158 77.152C230.79 82.016 228.07 86.624 224.998 90.976C221.926 95.264 218.342 99.072 214.246 102.4C210.214 105.792 205.51 108.448 200.134 110.368C194.822 112.288 188.678 113.248 181.702 113.248C175.43 113.248 169.574 112.32 164.134 110.464C158.694 108.608 153.926 106.016 149.83 102.688C145.734 99.36 142.534 95.488 140.23 91.072C137.926 86.656 136.774 81.92 136.774 76.864C136.774 71.936 137.894 67.328 140.134 63.04C142.438 58.688 145.606 54.88 149.638 51.616C153.734 48.288 158.438 45.696 163.75 43.84C169.126 41.984 174.854 41.056 180.934 41.056C187.59 41.056 193.51 42.176 198.694 44.416C203.878 46.592 207.942 49.632 210.886 53.536C213.894 57.376 215.398 61.792 215.398 66.784C215.398 70.56 214.47 74.112 212.614 77.44C210.822 80.704 208.294 83.584 205.03 86.08C201.766 88.576 197.958 90.528 193.606 91.936C189.318 93.344 184.678 94.048 179.686 94.048C174.694 94.048 170.342 93.312 166.63 91.84C162.918 90.304 160.038 88.16 157.99 85.408C155.942 82.656 154.918 79.456 154.918 75.808C154.918 72.096 156.038 68.768 158.278 65.824C160.518 62.816 163.526 60.448 167.302 58.72C171.142 56.928 175.43 56.032 180.166 56.032C185.286 56.032 189.446 57.088 192.646 59.2C195.846 61.248 197.446 63.968 197.446 67.36C197.446 69.728 196.678 71.872 195.142 73.792C193.67 75.648 191.622 77.12 188.998 78.208C186.438 79.296 183.494 79.84 180.166 79.84C178.374 79.84 176.934 79.488 175.846 78.784C174.758 78.08 174.214 77.184 174.214 76.096C174.214 74.56 175.462 73.344 177.958 72.448C180.518 71.488 183.878 71.008 188.038 71.008C194.758 71.008 200.678 72.128 205.798 74.368C210.982 76.608 215.014 79.712 217.894 83.68C220.774 87.648 222.214 92.224 222.214 97.408C222.214 101.376 221.062 105.056 218.758 108.448C216.518 111.904 213.382 114.912 209.35 117.472C205.382 120.096 200.742 122.144 195.43 123.616C190.118 125.088 184.39 125.824 178.246 125.824C169.862 125.824 162.15 124.672 155.11 122.368C148.134 120.128 142.054 116.928 136.87 112.768C131.75 108.608 127.782 103.68 124.966 97.984C122.15 92.288 120.742 86.048 120.742 79.264C120.742 72.864 122.086 66.752 124.774 60.928C127.462 55.104 131.238 49.856 136.102 45.184C141.03 40.512 146.854 36.704 153.574 33.76L153.862 34.24C147.27 37.12 141.542 40.896 136.678 45.568C131.814 50.24 128.07 55.488 125.446 61.312C122.758 67.072 121.414 73.12 121.414 79.456C121.414 86.176 122.822 92.32 125.638 97.888C128.39 103.456 132.294 108.288 137.35 112.384C142.406 116.48 148.39 119.648 155.302 121.888C162.278 124.128 169.926 125.248 178.246 125.248C184.326 125.248 189.99 124.512 195.238 123.04C200.486 121.632 205.062 119.648 208.966 117.088C212.934 114.592 216.038 111.648 218.278 108.256C220.518 104.928 221.638 101.312 221.638 97.408C221.638 92.352 220.198 87.904 217.318 84.064C214.502 80.16 210.566 77.12 205.51 74.944C200.454 72.704 194.662 71.584 188.134 71.584C184.038 71.584 180.774 72 178.342 72.832C175.974 73.6 174.79 74.688 174.79 76.096C174.79 76.992 175.27 77.76 176.23 78.4C177.254 78.976 178.566 79.264 180.166 79.264C183.366 79.264 186.214 78.752 188.71 77.728C191.206 76.64 193.19 75.2 194.662 73.408C196.134 71.552 196.87 69.504 196.87 67.264C196.87 64.128 195.302 61.568 192.166 59.584C189.094 57.6 185.094 56.608 180.166 56.608C175.558 56.608 171.366 57.472 167.59 59.2C163.878 60.864 160.934 63.136 158.758 66.016C156.582 68.896 155.494 72.16 155.494 75.808C155.494 79.328 156.486 82.432 158.47 85.12C160.518 87.744 163.334 89.792 166.918 91.264C170.566 92.736 174.822 93.472 179.686 93.472C184.55 93.472 189.094 92.8 193.318 91.456C197.606 90.048 201.35 88.128 204.55 85.696C207.75 83.264 210.246 80.448 212.038 77.248C213.894 73.984 214.822 70.496 214.822 66.784C214.822 61.92 213.35 57.6 210.406 53.824C207.462 50.048 203.43 47.072 198.31 44.896C193.254 42.72 187.462 41.632 180.934 41.632C174.918 41.632 169.286 42.56 164.038 44.416C158.79 46.208 154.15 48.736 150.118 52C146.15 55.2 143.014 58.944 140.71 63.232C138.47 67.456 137.35 72 137.35 76.864C137.35 81.088 138.374 85.024 140.422 88.672C142.534 92.32 145.414 95.552 149.062 98.368C152.774 101.12 157.03 103.264 161.83 104.8C166.694 106.4 171.91 107.2 177.478 107.2C183.878 107.2 189.702 106.272 194.95 104.416C200.198 102.56 204.966 100.064 209.254 96.928C213.606 93.728 217.542 90.08 221.062 85.984C224.582 81.888 227.782 77.568 230.662 73.024C233.542 68.48 236.166 63.968 238.534 59.488C240.966 54.944 243.206 50.656 245.254 46.624C247.302 42.528 249.254 38.944 251.11 35.872ZM245.359 77.632H251.119C250.031 78.208 248.655 79.2 246.991 80.608C245.327 82.016 243.567 83.616 241.711 85.408C239.919 87.2 238.223 89.024 236.623 90.88C235.023 92.672 233.743 94.304 232.783 95.776C231.759 97.184 231.247 98.208 231.247 98.848C231.247 99.744 231.631 100.192 232.399 100.192C233.295 100.192 234.671 99.584 236.527 98.368C238.383 97.152 240.463 95.52 242.767 93.472C245.071 91.36 247.375 88.992 249.679 86.368H250.447C246.159 90.848 242.415 94.368 239.215 96.928C236.079 99.424 233.775 100.672 232.303 100.672C231.727 100.672 231.279 100.48 230.959 100.096C230.639 99.712 230.479 99.2 230.479 98.56C230.479 97.28 230.927 95.808 231.823 94.144C232.719 92.416 234.255 90.24 236.431 87.616C238.607 84.992 241.583 81.664 245.359 77.632ZM244.783 100.672C243.375 100.672 242.671 99.936 242.671 98.464C242.671 96.608 243.823 94.048 246.127 90.784C248.495 87.456 252.303 83.072 257.551 77.632H263.311C262.671 77.952 261.871 78.464 260.911 79.168C260.015 79.872 259.023 80.768 257.935 81.856C254.479 85.312 251.695 88.16 249.583 90.4C247.535 92.576 246.031 94.304 245.071 95.584C244.175 96.864 243.727 97.92 243.727 98.752C243.727 99.712 244.111 100.192 244.879 100.192C245.775 100.192 247.023 99.648 248.623 98.56C250.287 97.472 252.111 96.064 254.095 94.336C256.079 92.544 258.031 90.592 259.951 88.48L260.815 87.52H261.583L260.911 88.288C258.799 90.656 256.687 92.8 254.575 94.72C252.463 96.576 250.543 98.048 248.815 99.136C247.151 100.16 245.807 100.672 244.783 100.672ZM258.313 100.672C256.585 100.672 255.721 99.712 255.721 97.792C255.721 94.784 257.417 91.36 260.809 87.52L323.881 16.096H329.929C328.905 16.608 327.337 17.824 325.225 19.744C323.177 21.6 320.777 23.936 318.025 26.752C315.337 29.504 312.521 32.544 309.577 35.872L265.033 86.368C262.089 89.632 260.041 92.16 258.889 93.952C257.737 95.744 257.161 97.28 257.161 98.56C257.161 99.648 257.609 100.192 258.505 100.192C260.169 100.192 262.441 99.168 265.321 97.12C268.201 95.008 271.241 92.128 274.441 88.48L275.305 87.52H276.073L275.401 88.288C271.881 92.256 268.649 95.328 265.705 97.504C262.825 99.616 260.361 100.672 258.313 100.672ZM273.612 100.48C272.012 100.48 271.212 99.232 271.212 96.736C271.212 95.072 271.724 93.312 272.748 91.456C273.708 89.6 275.02 87.808 276.684 86.08C278.348 84.288 280.204 82.688 282.252 81.28C284.3 79.808 286.412 78.656 288.588 77.824C290.828 76.992 292.94 76.576 294.924 76.576C296.588 76.576 297.42 77.216 297.42 78.496C297.42 79.712 296.652 81.248 295.116 83.104C293.58 84.896 291.66 87.008 289.356 89.44C287.564 91.296 285.644 93.088 283.596 94.816C281.612 96.48 279.724 97.856 277.932 98.944C276.204 99.968 274.764 100.48 273.612 100.48ZM273.708 100C274.668 100 275.948 99.552 277.548 98.656C279.148 97.696 280.94 96.384 282.924 94.72C284.908 93.056 286.924 91.168 288.972 89.056C291.276 86.624 293.132 84.544 294.54 82.816C296.012 81.088 296.748 79.68 296.748 78.592C296.748 77.76 296.204 77.344 295.116 77.344C294.156 77.344 292.908 77.728 291.372 78.496C289.9 79.264 288.3 80.32 286.572 81.664C284.844 82.944 283.148 84.384 281.484 85.984C279.82 87.584 278.284 89.184 276.876 90.784C275.532 92.384 274.444 93.888 273.612 95.296C272.78 96.704 272.364 97.888 272.364 98.848C272.364 99.616 272.812 100 273.708 100ZM303.756 87.52L303.084 88.288C301.036 90.592 298.956 92.704 296.844 94.624C294.796 96.48 292.876 97.952 291.084 99.04C289.356 100.128 287.98 100.672 286.956 100.672C286.38 100.672 285.868 100.448 285.42 100C285.036 99.616 284.844 99.104 284.844 98.464C284.844 96.8 285.74 94.56 287.532 91.744C289.388 88.928 291.948 85.856 295.212 82.528H295.596L300.012 77.632H305.676C304.844 78.144 303.948 78.784 302.988 79.552C302.028 80.256 301.132 81.024 300.3 81.856C296.652 85.504 293.772 88.416 291.66 90.592C289.548 92.768 288.044 94.464 287.148 95.68C286.316 96.896 285.9 97.92 285.9 98.752C285.9 99.712 286.284 100.192 287.052 100.192C287.948 100.192 289.164 99.712 290.7 98.752C292.3 97.728 294.092 96.32 296.076 94.528C298.06 92.736 300.076 90.72 302.124 88.48L302.988 87.52H303.756ZM303.764 87.52H302.996L303.86 86.56C307.444 82.4 311.092 78.368 314.804 74.464C318.58 70.496 322.42 66.592 326.324 62.752H326.996C323.284 66.4 319.572 70.208 315.86 74.176C312.148 78.08 308.404 82.208 304.628 86.56L303.764 87.52ZM301.076 96.928C301.652 98.144 302.58 98.752 303.86 98.752C305.076 98.752 306.548 98.208 308.276 97.12C310.004 96.032 311.796 94.656 313.652 92.992C315.572 91.264 317.332 89.44 318.932 87.52C320.596 85.6 321.94 83.776 322.964 82.048C323.988 80.32 324.5 78.944 324.5 77.92C324.5 77.216 324.116 76.864 323.348 76.864C322.26 76.864 320.916 77.312 319.316 78.208C317.716 79.104 316.052 80.256 314.324 81.664C312.596 83.072 310.964 84.512 309.428 85.984C307.892 87.392 306.58 88.672 305.492 89.824C304.404 90.912 303.7 91.648 303.38 92.032L257.3 147.424L250.58 148.672C251.348 148.096 252.34 147.232 253.556 146.08C254.708 144.928 255.956 143.648 257.3 142.24C258.644 140.832 259.956 139.392 261.236 137.92C262.516 136.512 263.7 135.2 264.788 133.984C265.812 132.832 266.58 131.936 267.092 131.296L304.724 87.52C305.364 86.816 306.356 85.728 307.7 84.256C309.044 82.72 310.58 80.992 312.308 79.072C314.036 77.152 315.796 75.2 317.588 73.216C319.38 71.168 321.044 69.248 322.58 67.456C324.116 65.6 325.364 64.032 326.324 62.752H329.684C328.916 63.2 327.828 64.064 326.42 65.344C325.012 66.624 323.412 68.192 321.62 70.048C319.892 71.904 318.068 73.92 316.148 76.096C314.292 78.208 312.468 80.352 310.676 82.528C308.884 84.64 307.284 86.592 305.876 88.384L305.684 88H306.548C309.684 84.8 312.34 82.368 314.516 80.704C316.692 79.04 318.484 77.92 319.892 77.344C321.364 76.704 322.548 76.384 323.444 76.384C324.148 76.384 324.692 76.672 325.076 77.248C325.524 77.824 325.748 78.624 325.748 79.648C325.748 81.952 325.076 84.256 323.732 86.56C322.388 88.864 320.628 90.976 318.452 92.896C316.276 94.816 313.908 96.352 311.348 97.504C308.852 98.656 306.388 99.232 303.956 99.232C302.292 99.232 301.108 98.752 300.404 97.792L301.076 96.928ZM327.143 100.48C325.543 100.48 324.743 99.232 324.743 96.736C324.743 95.072 325.255 93.312 326.279 91.456C327.239 89.6 328.551 87.808 330.215 86.08C331.879 84.288 333.735 82.688 335.783 81.28C337.831 79.808 339.943 78.656 342.119 77.824C344.359 76.992 346.471 76.576 348.455 76.576C350.119 76.576 350.951 77.216 350.951 78.496C350.951 79.712 350.183 81.248 348.647 83.104C347.111 84.896 345.191 87.008 342.887 89.44C341.095 91.296 339.175 93.088 337.127 94.816C335.143 96.48 333.255 97.856 331.463 98.944C329.735 99.968 328.295 100.48 327.143 100.48ZM327.239 100C328.199 100 329.479 99.552 331.079 98.656C332.679 97.696 334.471 96.384 336.455 94.72C338.439 93.056 340.455 91.168 342.503 89.056C344.807 86.624 346.663 84.544 348.071 82.816C349.543 81.088 350.279 79.68 350.279 78.592C350.279 77.76 349.735 77.344 348.647 77.344C347.687 77.344 346.439 77.728 344.903 78.496C343.431 79.264 341.831 80.32 340.103 81.664C338.375 82.944 336.679 84.384 335.015 85.984C333.351 87.584 331.815 89.184 330.407 90.784C329.063 92.384 327.975 93.888 327.143 95.296C326.311 96.704 325.895 97.888 325.895 98.848C325.895 99.616 326.343 100 327.239 100ZM357.287 87.52L356.615 88.288C354.567 90.592 352.487 92.704 350.375 94.624C348.327 96.48 346.407 97.952 344.615 99.04C342.887 100.128 341.511 100.672 340.487 100.672C339.911 100.672 339.399 100.448 338.951 100C338.567 99.616 338.375 99.104 338.375 98.464C338.375 96.8 339.271 94.56 341.063 91.744C342.919 88.928 345.479 85.856 348.743 82.528H349.127L353.543 77.632H359.207C358.375 78.144 357.479 78.784 356.519 79.552C355.559 80.256 354.663 81.024 353.831 81.856C350.183 85.504 347.303 88.416 345.191 90.592C343.079 92.768 341.575 94.464 340.679 95.68C339.847 96.896 339.431 97.92 339.431 98.752C339.431 99.712 339.815 100.192 340.583 100.192C341.479 100.192 342.695 99.712 344.231 98.752C345.831 97.728 347.623 96.32 349.607 94.528C351.591 92.736 353.607 90.72 355.655 88.48L356.519 87.52H357.287Z" fill="#FFBD52"/>
</g>
<defs>
<filter id="filter0_d_1_3" x="0.0240021" y="0.095993" width="379.183" height="172.576" filterUnits="userSpaceOnUse" color-interpolation-filters="sRGB">
<feFlood flood-opacity="0" result="BackgroundImageFix"/>
<feColorMatrix in="SourceAlpha" type="matrix" values="0 0 0 0 0 0 0 0 0 0 0 0 0 0 0 0 0 0 127 0" result="hardAlpha"/>
<feOffset dy="4"/>
<feGaussianBlur stdDeviation="10"/>
<feComposite in2="hardAlpha" operator="out"/>
<feColorMatrix type="matrix" values="0 0 0 0 0.865385 0 0 0 0 0.19693 0 0 0 0 0.19693 0 0 0 0.25 0"/>
<feBlend mode="normal" in2="BackgroundImageFix" result="effect1_dropShadow_1_3"/>
<feBlend mode="normal" in="SourceGraphic" in2="effect1_dropShadow_1_3" result="shape"/>
</filter>
</defs>
</svg>
